HIERARCHY
ROOT Hips
{
	OFFSET -3.958830 18.904000 13.208200
	CHANNELS 6 Xposition Yposition Zposition Zrotation Yrotation Xrotation 
	JOINT LHipJoint
	{
		OFFSET 0.000000 0.000000 0.000000
		CHANNELS 3 Zrotation Yrotation Xrotation
		JOINT LeftUpLeg
		{
			OFFSET 1.800000 -1.400000 0.085000
			CHANNELS 3 Zrotation Yrotation Xrotation
			JOINT LeftLeg
			{
				OFFSET 2.215000 -6.000000 0.000000
				CHANNELS 3 Zrotation Yrotation Xrotation
				JOINT LeftFoot
				{
					OFFSET 2.500000 -6.900000 0.000000
					CHANNELS 3 Zrotation Yrotation Xrotation
					JOINT LeftToeBase
					{
						OFFSET 0.200000 -0.500000 1.950000
						CHANNELS 3 Zrotation Yrotation Xrotation
						End Site
						{
							OFFSET 0.000000 0.000000 0.000000
						}
					}
				}
			}
		}
	}
	JOINT RHipJoint
	{
		OFFSET 0.000000 0.000000 0.000000
		CHANNELS 3 Zrotation Yrotation Xrotation
		JOINT RightUpLeg
		{
			OFFSET -1.800000 -1.400000 0.085000
			CHANNELS 3 Zrotation Yrotation Xrotation
			JOINT RightLeg
			{
				OFFSET -2.215000 -6.000000 0.000000
				CHANNELS 3 Zrotation Yrotation Xrotation
				JOINT RightFoot
				{
					OFFSET -2.500000 -6.900000 0.000000
					CHANNELS 3 Zrotation Yrotation Xrotation
					JOINT RightToeBase
					{
						OFFSET -0.200000 -0.500000 1.950000
						CHANNELS 3 Zrotation Yrotation Xrotation
						End Site
						{
							OFFSET 0.000000 0.000000 0.000000
						}
					}
				}
			}
		}
	}
	JOINT LowerBack
	{
		OFFSET 0.000000 0.000000 0.000000
		CHANNELS 3 Zrotation Yrotation Xrotation
		JOINT Spine
		{
			OFFSET -0.087000 1.940000 -0.288900
			CHANNELS 3 Zrotation Yrotation Xrotation
			JOINT Spine1
			{
				OFFSET 0.000000 1.950000 0.060000
				CHANNELS 3 Zrotation Yrotation Xrotation
				JOINT Neck
				{
					OFFSET 0.000000 0.000000 0.000000
					CHANNELS 3 Zrotation Yrotation Xrotation
					JOINT Neck1
					{
						OFFSET 0.000000 1.600000 0.340000
						CHANNELS 3 Zrotation Yrotation Xrotation
						JOINT Head
						{
							OFFSET 0.000000 1.667000 -0.240000
							CHANNELS 3 Zrotation Yrotation Xrotation
							End Site
							{
								OFFSET 0.000000 0.000000 0.000000
							}
						}
					}
				}
				JOINT LeftShoulder
				{
					OFFSET 0.000000 0.000000 0.000000
					CHANNELS 3 Zrotation Yrotation Xrotation
					JOINT LeftArm
					{
						OFFSET 2.700000 1.550000 -0.730000
						CHANNELS 3 Zrotation Yrotation Xrotation
						JOINT LeftForeArm
						{
							OFFSET 5.450000 0.000000 0.000000
							CHANNELS 3 Zrotation Yrotation Xrotation
							JOINT LeftHand
							{
								OFFSET 3.450000 0.000000 0.000000
								CHANNELS 3 Zrotation Yrotation Xrotation
								JOINT LeftHandIndex1
								{
									OFFSET 0.750000 0.000000 0.000000
									CHANNELS 3 Zrotation Yrotation Xrotation
									End Site
									{
										OFFSET 0.000000 0.000000 0.000000
									}
								}
							}
						}
					}
				}
				JOINT RightShoulder
				{
					OFFSET 0.000000 0.000000 0.000000
					CHANNELS 3 Zrotation Yrotation Xrotation
					JOINT RightArm
					{
						OFFSET -2.700000 1.550000 -0.730000
						CHANNELS 3 Zrotation Yrotation Xrotation
						JOINT RightForeArm
						{
							OFFSET -5.450000 0.000000 0.000000
							CHANNELS 3 Zrotation Yrotation Xrotation
							JOINT RightHand
							{
								OFFSET -3.450000 0.000000 0.000000
								CHANNELS 3 Zrotation Yrotation Xrotation
								JOINT RightHandIndex1
								{
									OFFSET -0.750000 0.000000 0.000000
									CHANNELS 3 Zrotation Yrotation Xrotation
									End Site
									{
										OFFSET 0.000000 0.000000 0.000000
									}
								}
							}
						}
					}
				}
			}
		}
	}
}
MOTION
Frames: 5
Frame Time: 0.016667
15.594790 16.993060 -26.129080 -4.583255 -75.031717 -13.846158 -16.294563 10.549086 5.550247 57.237815 -1.007247 -16.735326 -33.567824 25.090765 31.224317 -4.782562 16.316577 -1.573050 -3.323450 -4.978810 -2.308870 18.516751 -3.714842 4.947000 42.707037 15.264536 -16.176697 -10.606491 -2.775416 8.562997 2.004834 -2.624723 5.227524 -0.448020 3.326960 -2.570170 -0.281491 -8.656777 -10.901095 -11.287836 -6.672717 44.060567 7.882994 -1.362421 5.030082 -2.555519 -13.816136 -11.006579 -44.140214 32.139683 15.927107 -9.862910 12.461000 -15.598170 -31.601000 -11.600424 3.727379 -34.651863 4.219855 -4.745474 -159.642017 -60.155649 122.316711 -6.568847 -1.433113 3.447880 1.426420 -3.293280 -1.116940 38.045341 16.967156 7.790902 20.359192 2.002578 -7.809335 97.310453 44.347720 40.303743 -1.329405 1.960239 -6.111750 4.524300 4.391030 -2.214560 
15.560190 16.996870 -26.109930 -5.054967 -75.361577 -13.986346 -16.270991 10.613978 5.521632 57.388793 -1.226578 -16.413692 -33.188104 25.410197 32.169276 -4.731346 16.366709 -1.583221 -3.344480 -4.984650 -2.359480 18.532702 -3.735957 4.929044 42.832598 14.922695 -15.488225 -10.476267 -2.812722 8.739466 1.998114 -2.684121 5.211052 -0.456460 3.341160 -2.568850 -0.199380 -8.757041 -10.895833 -11.449441 -6.514543 44.453121 8.136796 -1.104030 5.198407 -2.261219 -13.717633 -11.394816 -44.104632 32.267296 16.399174 -9.126730 12.475180 -14.375940 -31.962755 -11.937037 3.903156 -34.087731 5.175396 -4.709980 -156.946720 -58.666662 116.427050 -6.589307 -1.390883 3.424260 1.437850 -3.300350 -1.114610 37.877653 17.270032 8.332906 19.993241 -0.407766 -8.594155 99.829969 44.324835 41.008183 -1.349539 1.913466 -6.093430 4.508140 4.397060 -2.193170 
15.498800 17.021810 -26.066850 -6.147987 -75.750323 -14.383339 -16.221480 10.760207 5.440728 57.376030 -1.758549 -15.724515 -32.007241 25.816705 34.134985 -4.618774 16.392599 -1.576904 -3.339060 -4.942480 -2.401180 18.560217 -3.811359 4.881747 42.888901 14.158904 -13.994199 -10.222488 -2.887837 9.207024 1.946635 -2.781340 5.182642 -0.473100 3.307260 -2.576390 -0.082378 -8.928287 -10.863039 -11.599570 -6.378619 45.633219 8.449224 -0.905300 5.710460 -1.743070 -13.585605 -12.040409 -44.628730 32.110858 17.294617 -8.749100 12.133820 -13.728120 -32.113695 -12.487496 4.221395 -33.355359 6.255360 -4.660104 -152.826294 -56.060860 106.758279 -6.568694 -1.316639 3.386270 1.414730 -3.282190 -1.113990 37.077975 17.767015 9.045168 20.077935 -3.790625 -10.195747 99.595442 45.425221 40.276710 -1.349824 1.873408 -6.016080 4.466570 4.371940 -2.162890 
15.408640 17.022670 -26.018550 -6.532332 -76.322538 -14.839569 -16.175730 10.838911 5.379838 57.301819 -1.852402 -15.777967 -30.521564 26.661219 36.998132 -4.468696 16.489413 -1.587010 -3.347810 -4.904560 -2.467980 18.590101 -3.893485 4.864928 43.039167 13.575649 -12.979706 -10.147965 -2.903813 9.816151 1.912236 -2.875816 5.150418 -0.487210 3.305580 -2.575570 -0.044200 -8.951444 -10.839641 -11.317364 -6.399750 45.616829 8.478068 -0.958332 5.735649 -1.331033 -13.351069 -12.735338 -44.855804 32.399436 18.432423 -7.143910 11.890760 -11.808200 -32.295755 -12.902806 4.738289 -32.466349 8.292462 -4.509481 -146.082279 -52.632407 91.873382 -6.560418 -1.207765 3.320080 1.412390 -3.273420 -1.107050 36.608832 18.014041 9.641887 20.627505 -7.202475 -11.700750 95.650867 49.958877 40.462356 -1.316559 1.859492 -5.934870 4.423400 4.349280 -2.110090 
15.306350 17.016100 -25.968600 -6.173536 -76.911207 -16.630687 -16.073962 10.922483 5.286140 56.933242 -2.050708 -15.611958 -28.460787 27.436164 40.574150 -4.248855 16.539086 -1.585947 -3.297780 -4.772480 -2.524110 18.664829 -4.050015 4.833238 43.069238 12.736071 -11.535327 -10.295408 -2.894178 10.863818 1.810255 -2.994333 5.081590 -0.481760 3.232860 -2.569930 0.015664 -8.980640 -10.795389 -11.522665 -6.217608 46.279305 8.664517 -0.897234 5.506131 -0.908007 -12.981888 -13.759488 -45.983558 32.808284 19.834791 -4.585950 10.967040 -11.179700 -32.274078 -13.499392 5.535034 -31.913476 10.546880 -4.539536 -140.772335 -47.511943 76.632004 -6.444288 -1.069146 3.247910 1.343640 -3.204780 -1.084150 35.982494 18.399847 10.381142 21.602212 -10.755567 -13.317955 91.149163 58.331545 42.756647 -1.231209 1.863514 -5.777170 4.350080 4.276170 -2.033360 
